<svg width="13" height="15" viewBox="0 0 13 15" fill="none" xmlns="http://www.w3.org/2000/svg">
<path opacity="0.5" fill-rule="evenodd" clip-rule="evenodd" d="M11.05 1.99995H9.75V1.34995C9.75 0.959951 9.49 0.699951 9.1 0.699951C8.71 0.699951 8.45 0.959951 8.45 1.34995V1.99995H4.55V1.34995C4.55 0.959951 4.29 0.699951 3.9 0.699951C3.51 0.699951 3.25 0.959951 3.25 1.34995V1.99995H1.95C0.845 1.99995 0 2.84495 0 3.94995V13.05C0 14.155 0.845 15 1.95 15H11.05C12.155 15 13 14.155 13 13.05V3.94995C13 2.84495 12.155 1.99995 11.05 1.99995ZM1.95 3.29995H3.25V3.94995C3.25 4.33995 3.51 4.59995 3.9 4.59995C4.29 4.59995 4.55 4.33995 4.55 3.94995V3.29995H8.45V3.94995C8.45 4.33995 8.71 4.59995 9.1 4.59995C9.49 4.59995 9.75 4.33995 9.75 3.94995V3.29995H11.05C11.44 3.29995 11.7 3.55995 11.7 3.94995V5.89995H1.3V3.94995C1.3 3.55995 1.56 3.29995 1.95 3.29995ZM1.95 13.7H11.05C11.44 13.7 11.7 13.44 11.7 13.05V7.19995H1.3V13.05C1.3 13.44 1.56 13.7 1.95 13.7Z" fill="black"/>
</svg>
