<svg width="20" height="20" viewBox="0 0 20 20" fill="none" xmlns="http://www.w3.org/2000/svg">
<g clip-path="url(#clip0)">
<path d="M10 5C11.3807 5 12.5 3.88071 12.5 2.5C12.5 1.11929 11.3807 0 10 0C8.61929 0 7.5 1.11929 7.5 2.5C7.5 3.88071 8.61929 5 10 5Z" fill="#6F8A9C"/>
<path d="M5.83333 8.30834V8.33334H3.95833C3.765 8.33334 3.5825 8.42251 3.46333 8.57584C3.345 8.72918 3.305 8.92834 3.35333 9.11584L5.85833 18.75H3.125C2.78 18.75 2.5 19.03 2.5 19.375C2.5 19.72 2.78 20 3.125 20H6.66667H13.3333H16.875C17.22 20 17.5 19.72 17.5 19.375C17.5 19.03 17.22 18.75 16.875 18.75H14.1417L16.6467 9.11584C16.6958 8.92834 16.655 8.72918 16.5367 8.57584C16.4175 8.42251 16.235 8.33334 16.0417 8.33334H14.1667V8.30834C14.1667 6.94418 13.1017 5.83334 11.7917 5.83334H8.20833C6.89833 5.83334 5.83333 6.94418 5.83333 8.30834ZM6.795 11.0783C6.91417 10.9233 7.0975 10.8333 7.29167 10.8333H12.7083C12.9025 10.8333 13.0858 10.9233 13.205 11.0783C13.3233 11.2325 13.3625 11.4333 13.3125 11.6208L11.8542 17.0375C11.78 17.31 11.5325 17.5 11.25 17.5H8.75C8.4675 17.5 8.22 17.31 8.14583 17.0375L6.6875 11.6208C6.6375 11.4333 6.6775 11.2325 6.795 11.0783Z" fill="#6F8A9C"/>
</g>
<defs>
<clipPath id="clip0">
<rect width="20" height="20" fill="white"/>
</clipPath>
</defs>
</svg>
