<svg width="20" height="20" viewBox="0 0 20 20" fill="none" xmlns="http://www.w3.org/2000/svg">
<g clip-path="url(#clip0)">
<path d="M10 8.07153C11.8769 8.07153 13.3984 6.55 13.3984 4.6731C13.3984 2.79619 11.8769 1.27466 10 1.27466C8.12309 1.27466 6.60156 2.79619 6.60156 4.6731C6.60156 6.55 8.12309 8.07153 10 8.07153Z" fill="#6F8A9C"/>
<path d="M16.875 8.07148C18.0615 8.07148 19.0234 7.10959 19.0234 5.92304C19.0234 4.73649 18.0615 3.7746 16.875 3.7746C15.6885 3.7746 14.7266 4.73649 14.7266 5.92304C14.7266 7.10959 15.6885 8.07148 16.875 8.07148Z" fill="#6F8A9C"/>
<path d="M3.125 8.07148C4.31155 8.07148 5.27344 7.10959 5.27344 5.92304C5.27344 4.73649 4.31155 3.7746 3.125 3.7746C1.93845 3.7746 0.976562 4.73649 0.976562 5.92304C0.976562 7.10959 1.93845 8.07148 3.125 8.07148Z" fill="#6F8A9C"/>
<path d="M5.2418 10.0008C4.39609 9.30793 3.6302 9.39965 2.65234 9.39965C1.18984 9.39965 0 10.5825 0 12.036V16.302C0 16.9332 0.515234 17.4465 1.14883 17.4465C3.88422 17.4465 3.55469 17.496 3.55469 17.3285C3.55469 14.3057 3.19664 12.0888 5.2418 10.0008Z" fill="#6F8A9C"/>
<path d="M10.9299 9.41523C9.22198 9.27277 7.73741 9.41687 6.4569 10.4738C4.31405 12.1902 4.72643 14.5013 4.72643 17.3285C4.72643 18.0765 5.33503 18.6965 6.0944 18.6965C14.3398 18.6965 14.668 18.9625 15.1569 17.8797C15.3173 17.5135 15.2733 17.6299 15.2733 14.1269C15.2733 11.3447 12.8642 9.41523 10.9299 9.41523Z" fill="#6F8A9C"/>
<path d="M17.3475 9.39961C16.3643 9.39961 15.6026 9.30883 14.7581 10.0008C16.7879 12.0733 16.4452 14.1389 16.4452 17.3285C16.4452 17.497 16.1716 17.4465 18.81 17.4465C19.4663 17.4465 19.9999 16.9148 19.9999 16.2613V12.0359C19.9999 10.5824 18.81 9.39961 17.3475 9.39961Z" fill="#6F8A9C"/>
</g>
<defs>
<clipPath id="clip0">
<rect width="20" height="20" fill="white"/>
</clipPath>
</defs>
</svg>
