<svg width="15" height="15" viewBox="0 0 15 15" fill="none" xmlns="http://www.w3.org/2000/svg">
<path d="M0 7.5C0 11.6421 3.35786 15 7.5 15C11.6421 15 15 11.6421 15 7.5C15 3.35786 11.6421 0 7.5 0C3.35786 0 0 3.35786 0 7.5Z" fill="#990C0C"/>
<path d="M6.07138 8.92852H3.57138C3.47666 8.92852 3.38582 8.89089 3.31884 8.82391C3.25186 8.75694 3.21423 8.6661 3.21423 8.57138V6.42852C3.21423 6.3338 3.25186 6.24296 3.31884 6.17598C3.38582 6.109 3.47666 6.07138 3.57138 6.07138H6.07138V3.57138C6.07138 3.47666 6.109 3.38582 6.17598 3.31884C6.24296 3.25186 6.3338 3.21423 6.42852 3.21423H8.57138C8.6661 3.21423 8.75694 3.25186 8.82391 3.31884C8.89089 3.38582 8.92852 3.47666 8.92852 3.57138V6.07138H11.4285C11.5232 6.07138 11.6141 6.109 11.6811 6.17598C11.748 6.24296 11.7857 6.3338 11.7857 6.42852V8.57138C11.7857 8.6661 11.748 8.75694 11.6811 8.82391C11.6141 8.89089 11.5232 8.92852 11.4285 8.92852H8.92852V11.4285C8.92852 11.5232 8.89089 11.6141 8.82391 11.6811C8.75694 11.748 8.6661 11.7857 8.57138 11.7857H6.42852C6.3338 11.7857 6.24296 11.748 6.17598 11.6811C6.109 11.6141 6.07138 11.5232 6.07138 11.4285V8.92852Z" fill="white"/>
</svg>
