<svg width="16" height="16" viewBox="0 0 16 16" fill="none" xmlns="http://www.w3.org/2000/svg">
<path d="M6.58586 0.585784C5.80482 1.36683 5.80482 2.63316 6.58586 3.41421C7.36691 4.19525 8.63323 4.19525 9.41428 3.41421C10.1953 2.63316 10.1953 1.36683 9.41428 0.585784C8.63327 -0.195261 7.36694 -0.195261 6.58586 0.585784Z" fill="#717F88"/>
<path d="M6.58586 6.58578C5.80482 7.36683 5.80482 8.63316 6.58586 9.4142C7.36691 10.1952 8.63323 10.1952 9.41428 9.4142C10.1953 8.63316 10.1953 7.36683 9.41428 6.58578C8.63327 5.80474 7.36694 5.80474 6.58586 6.58578Z" fill="#717F88"/>
<path d="M6.58586 12.5858C5.80482 13.3668 5.80482 14.6332 6.58586 15.4142C7.36691 16.1953 8.63323 16.1953 9.41428 15.4142C10.1953 14.6332 10.1953 13.3668 9.41428 12.5858C8.63327 11.8047 7.36694 11.8047 6.58586 12.5858Z" fill="#717F88"/>
</svg>
