<svg width="19" height="32" viewBox="0 0 19 32" fill="none" xmlns="http://www.w3.org/2000/svg">
<path d="M16.5071 0H3.17512C1.90012 0 0.870117 1.034 0.870117 2.309V29.379C0.870117 30.65 1.90012 31.685 3.17512 31.685H16.5071C17.7801 31.685 18.8141 30.651 18.8141 29.379V2.309C18.8131 1.034 17.7801 0 16.5071 0ZM17.0851 25.672H2.59912V3.895H17.0851V25.672ZM12.9321 2.343H6.75112V1.669H12.9331L12.9321 2.343ZM15.5771 2.035C15.5771 2.361 15.3111 2.625 14.9861 2.625C14.6601 2.625 14.3951 2.36 14.3951 2.035C14.3951 1.71 14.6601 1.445 14.9861 1.445C15.3121 1.444 15.5771 1.709 15.5771 2.035ZM12.6551 29.225H7.02612V27.493H12.6551V29.225Z" fill="#6F8A9C"/>
</svg>
