<svg width="80" height="74" viewBox="0 0 80 74" fill="none" xmlns="http://www.w3.org/2000/svg">
<path d="M65.0627 19.34C64.2073 14.2568 61.6903 9.61765 57.8408 6.09718C53.5636 2.1819 48.0033 0.0268555 42.2126 0.0268555C37.738 0.0268555 33.3786 1.31001 29.6443 3.72828C26.5351 5.73527 23.9523 8.44964 22.1263 11.6411C21.3366 11.493 20.5141 11.4108 19.6915 11.4108C12.7 11.4108 7.00802 17.1027 7.00802 24.0943C7.00802 24.9991 7.10672 25.871 7.27123 26.7264C2.74728 30.0166 0 35.3137 0 40.9563C0 45.5132 1.69443 49.9384 4.78717 53.4425C7.96216 57.0287 12.1571 59.1509 16.6317 59.3976C16.6811 59.3976 16.714 59.3976 16.7633 59.3976H30.911C32.1448 59.3976 33.1318 58.4106 33.1318 57.1768C33.1318 55.943 32.1448 54.9559 30.911 54.9559H16.8291C10.1008 54.5447 4.4417 48.1453 4.4417 40.9399C4.4417 36.2843 6.94222 31.9413 10.9727 29.5889C11.9103 29.046 12.3052 27.9109 11.9432 26.8909C11.6142 26.0026 11.4497 25.0649 11.4497 24.0614C11.4497 19.521 15.1511 15.8196 19.6915 15.8196C20.6621 15.8196 21.6163 15.9841 22.5046 16.3131C23.5904 16.7079 24.7913 16.2144 25.2848 15.178C28.3611 8.64705 35.0072 4.43566 42.2291 4.43566C51.935 4.43566 59.9465 11.7069 60.8678 21.347C60.9665 22.3505 61.7232 23.1566 62.7103 23.3211C70.0308 24.5714 75.5583 31.3326 75.5583 39.048C75.5583 47.2241 69.1261 54.3308 61.1968 54.9395H49.0726C47.8388 54.9395 46.8517 55.9265 46.8517 57.1603C46.8517 58.3941 47.8388 59.3812 49.0726 59.3812H61.279C61.3284 59.3812 61.3778 59.3812 61.4436 59.3812C66.461 59.0193 71.1495 56.7162 74.6371 52.8667C78.1082 49.0501 80 44.1478 80 39.048C79.9836 29.8192 73.6829 21.6102 65.0627 19.34Z" fill="#D1D1D1"/>
<path d="M53.3334 43.0619C54.2053 42.19 54.2053 40.7917 53.3334 39.9198L41.5711 28.1575C41.1599 27.7463 40.5841 27.4995 40.0083 27.4995C39.4325 27.4995 38.8568 27.7298 38.4455 28.1575L26.6832 39.9198C25.8113 40.7917 25.8113 42.19 26.6832 43.0619C27.1109 43.4896 27.6867 43.72 28.246 43.72C28.8054 43.72 29.3811 43.5061 29.8089 43.0619L37.7875 35.0833V71.752C37.7875 72.9859 38.7745 73.9729 40.0083 73.9729C41.2421 73.9729 42.2292 72.9859 42.2292 71.752V35.0833L50.2078 43.0619C51.0632 43.9338 52.4615 43.9338 53.3334 43.0619Z" fill="#D1D1D1"/>
</svg>
