<svg width="89" height="13" viewBox="0 0 89 13" fill="none" xmlns="http://www.w3.org/2000/svg">
<path d="M5.6 12.16C4.13867 12.16 2.99733 11.7813 2.176 11.024C1.36533 10.2667 0.933333 9.21067 0.88 7.856C0.869333 7.54667 0.864 7.05067 0.864 6.368C0.864 5.68533 0.869333 5.18933 0.88 4.88C0.933333 3.55733 1.37067 2.52267 2.192 1.776C3.024 1.01867 4.16 0.639999 5.6 0.639999C6.58133 0.639999 7.424 0.805333 8.128 1.136C8.832 1.46667 9.36533 1.88267 9.728 2.384C10.0907 2.87467 10.2827 3.36 10.304 3.84V3.872C10.304 3.95733 10.272 4.032 10.208 4.096C10.144 4.14933 10.064 4.176 9.968 4.176H8.32C8.21333 4.176 8.13333 4.16 8.08 4.128C8.02667 4.08533 7.97867 4.016 7.936 3.92C7.78667 3.52533 7.52533 3.18933 7.152 2.912C6.77867 2.624 6.26133 2.48 5.6 2.48C4.85333 2.48 4.26667 2.68267 3.84 3.088C3.424 3.49333 3.2 4.11733 3.168 4.96C3.15733 5.26933 3.152 5.73867 3.152 6.368C3.152 6.98667 3.15733 7.456 3.168 7.776C3.232 9.472 4.05333 10.32 5.632 10.32C6.38933 10.32 6.99733 10.1173 7.456 9.712C7.91467 9.296 8.144 8.68267 8.144 7.872V7.376H6.192C6.07467 7.376 5.97867 7.33867 5.904 7.264C5.84 7.18933 5.808 7.09333 5.808 6.976V6.128C5.808 6.01067 5.84 5.91467 5.904 5.84C5.97867 5.76533 6.07467 5.728 6.192 5.728H10.016C10.1333 5.728 10.224 5.76533 10.288 5.84C10.3627 5.91467 10.4 6.01067 10.4 6.128V7.808C10.4 8.69333 10.2027 9.46667 9.808 10.128C9.424 10.7787 8.86933 11.28 8.144 11.632C7.41867 11.984 6.57067 12.16 5.6 12.16ZM15.8431 12.16C14.6591 12.16 13.7151 11.8187 13.0111 11.136C12.3178 10.4427 11.9498 9.472 11.9071 8.224L11.8911 7.824L11.9071 7.424C11.9605 6.208 12.3338 5.25333 13.0271 4.56C13.7311 3.86667 14.6698 3.52 15.8431 3.52C17.1018 3.52 18.0725 3.904 18.7551 4.672C19.4485 5.44 19.7951 6.464 19.7951 7.744V8.08C19.7951 8.18667 19.7578 8.27733 19.6831 8.352C19.6085 8.42667 19.5125 8.464 19.3951 8.464H14.0831V8.592C14.1045 9.17867 14.2645 9.67467 14.5631 10.08C14.8725 10.4747 15.2938 10.672 15.8271 10.672C16.4565 10.672 16.9631 10.4267 17.3471 9.936C17.4431 9.81867 17.5178 9.744 17.5711 9.712C17.6351 9.68 17.7258 9.664 17.8431 9.664H19.2191C19.3151 9.664 19.3951 9.696 19.4591 9.76C19.5338 9.81333 19.5711 9.88267 19.5711 9.968C19.5711 10.224 19.4165 10.528 19.1071 10.88C18.8085 11.2213 18.3765 11.52 17.8111 11.776C17.2458 12.032 16.5898 12.16 15.8431 12.16ZM17.6191 7.12V7.072C17.6191 6.44267 17.4591 5.936 17.1391 5.552C16.8298 5.168 16.3978 4.976 15.8431 4.976C15.2885 4.976 14.8565 5.168 14.5471 5.552C14.2378 5.936 14.0831 6.44267 14.0831 7.072V7.12H17.6191ZM25.2223 12C24.2516 12 23.5209 11.7493 23.0303 11.248C22.5503 10.736 22.3103 9.98933 22.3103 9.008V5.376H21.0463C20.9396 5.376 20.8489 5.33867 20.7743 5.264C20.6996 5.17867 20.6623 5.08267 20.6623 4.976V4.064C20.6623 3.95733 20.6996 3.86667 20.7743 3.792C20.8489 3.71733 20.9396 3.68 21.0463 3.68H22.3103V1.024C22.3103 0.906666 22.3476 0.816 22.4223 0.752C22.4969 0.677333 22.5876 0.639999 22.6943 0.639999H23.9903C24.1076 0.639999 24.1983 0.677333 24.2623 0.752C24.3369 0.816 24.3743 0.906666 24.3743 1.024V3.68H26.3743C26.4916 3.68 26.5823 3.71733 26.6463 3.792C26.7209 3.856 26.7583 3.94667 26.7583 4.064V4.976C26.7583 5.09333 26.7209 5.18933 26.6463 5.264C26.5716 5.33867 26.4809 5.376 26.3743 5.376H24.3743V8.848C24.3743 9.30667 24.4543 9.65333 24.6143 9.888C24.7743 10.1227 25.0409 10.24 25.4143 10.24H26.5183C26.6249 10.24 26.7156 10.2773 26.7903 10.352C26.8649 10.4267 26.9023 10.5173 26.9023 10.624V11.616C26.9023 11.7227 26.8649 11.8133 26.7903 11.888C26.7263 11.9627 26.6356 12 26.5183 12H25.2223ZM36.0579 12.16C35.1085 12.16 34.2925 12.016 33.6099 11.728C32.9272 11.44 32.4099 11.0613 32.0579 10.592C31.7059 10.1227 31.5192 9.616 31.4979 9.072C31.4979 8.976 31.5299 8.896 31.5939 8.832C31.6579 8.768 31.7379 8.736 31.8339 8.736H33.2579C33.3859 8.736 33.4819 8.76267 33.5459 8.816C33.6205 8.85867 33.6899 8.93333 33.7539 9.04C33.8605 9.40267 34.1059 9.70667 34.4899 9.952C34.8739 10.1973 35.3965 10.32 36.0579 10.32C36.8152 10.32 37.3859 10.1973 37.7699 9.952C38.1539 9.696 38.3459 9.344 38.3459 8.896C38.3459 8.59733 38.2445 8.352 38.0419 8.16C37.8499 7.968 37.5565 7.80267 37.1619 7.664C36.7779 7.52533 36.2019 7.35467 35.4339 7.152C34.1752 6.85333 33.2525 6.45867 32.6659 5.968C32.0899 5.46667 31.8019 4.75733 31.8019 3.84C31.8019 3.22133 31.9672 2.672 32.2979 2.192C32.6392 1.712 33.1245 1.33333 33.7539 1.056C34.3939 0.778666 35.1352 0.639999 35.9779 0.639999C36.8525 0.639999 37.6099 0.794666 38.2499 1.104C38.8899 1.41333 39.3752 1.80267 39.7059 2.272C40.0472 2.73067 40.2285 3.18933 40.2499 3.648C40.2499 3.744 40.2179 3.824 40.1539 3.888C40.0899 3.952 40.0099 3.984 39.9139 3.984H38.4259C38.2019 3.984 38.0472 3.88267 37.9619 3.68C37.8979 3.33867 37.6845 3.056 37.3219 2.832C36.9592 2.59733 36.5112 2.48 35.9779 2.48C35.3805 2.48 34.9112 2.592 34.5699 2.816C34.2285 3.04 34.0579 3.36533 34.0579 3.792C34.0579 4.09067 34.1432 4.336 34.3139 4.528C34.4845 4.72 34.7512 4.89067 35.1139 5.04C35.4872 5.18933 36.0205 5.35467 36.7139 5.536C37.6525 5.74933 38.3992 5.98933 38.9539 6.256C39.5192 6.52267 39.9352 6.85867 40.2019 7.264C40.4685 7.66933 40.6019 8.18667 40.6019 8.816C40.6019 9.49867 40.4099 10.096 40.0259 10.608C39.6525 11.1093 39.1192 11.4933 38.4259 11.76C37.7432 12.0267 36.9539 12.16 36.0579 12.16ZM46.0035 12C45.0328 12 44.3022 11.7493 43.8115 11.248C43.3315 10.736 43.0915 9.98933 43.0915 9.008V5.376H41.8275C41.7208 5.376 41.6302 5.33867 41.5555 5.264C41.4808 5.17867 41.4435 5.08267 41.4435 4.976V4.064C41.4435 3.95733 41.4808 3.86667 41.5555 3.792C41.6302 3.71733 41.7208 3.68 41.8275 3.68H43.0915V1.024C43.0915 0.906666 43.1288 0.816 43.2035 0.752C43.2782 0.677333 43.3688 0.639999 43.4755 0.639999H44.7715C44.8888 0.639999 44.9795 0.677333 45.0435 0.752C45.1182 0.816 45.1555 0.906666 45.1555 1.024V3.68H47.1555C47.2728 3.68 47.3635 3.71733 47.4275 3.792C47.5022 3.856 47.5395 3.94667 47.5395 4.064V4.976C47.5395 5.09333 47.5022 5.18933 47.4275 5.264C47.3528 5.33867 47.2622 5.376 47.1555 5.376H45.1555V8.848C45.1555 9.30667 45.2355 9.65333 45.3955 9.888C45.5555 10.1227 45.8222 10.24 46.1955 10.24H47.2995C47.4062 10.24 47.4968 10.2773 47.5715 10.352C47.6462 10.4267 47.6835 10.5173 47.6835 10.624V11.616C47.6835 11.7227 47.6462 11.8133 47.5715 11.888C47.5075 11.9627 47.4168 12 47.2995 12H46.0035ZM51.5189 12.16C50.9749 12.16 50.4735 12.0533 50.0149 11.84C49.5669 11.616 49.2095 11.3173 48.9429 10.944C48.6869 10.5707 48.5589 10.16 48.5589 9.712C48.5589 8.98667 48.8522 8.4 49.4389 7.952C50.0255 7.504 50.8309 7.2 51.8549 7.04L54.0469 6.72V6.384C54.0469 5.91467 53.9295 5.56267 53.6949 5.328C53.4602 5.09333 53.0815 4.976 52.5589 4.976C52.2069 4.976 51.9189 5.04533 51.6949 5.184C51.4815 5.312 51.3109 5.44 51.1829 5.568C51.0549 5.70667 50.9695 5.79733 50.9269 5.84C50.8842 5.968 50.8042 6.032 50.6869 6.032H49.4549C49.3589 6.032 49.2735 6 49.1989 5.936C49.1349 5.872 49.1029 5.78667 49.1029 5.68C49.1135 5.41333 49.2415 5.10933 49.4869 4.768C49.7429 4.42667 50.1322 4.13333 50.6549 3.888C51.1775 3.64267 51.8175 3.52 52.5749 3.52C53.8335 3.52 54.7509 3.80267 55.3269 4.368C55.9029 4.93333 56.1909 5.67467 56.1909 6.592V11.616C56.1909 11.7227 56.1535 11.8133 56.0789 11.888C56.0149 11.9627 55.9242 12 55.8069 12H54.5109C54.4042 12 54.3135 11.9627 54.2389 11.888C54.1642 11.8133 54.1269 11.7227 54.1269 11.616V10.992C53.8922 11.3333 53.5562 11.616 53.1189 11.84C52.6922 12.0533 52.1589 12.16 51.5189 12.16ZM52.0629 10.64C52.6495 10.64 53.1295 10.448 53.5029 10.064C53.8762 9.68 54.0629 9.12 54.0629 8.384V8.048L52.4629 8.304C51.8442 8.4 51.3749 8.55467 51.0549 8.768C50.7455 8.98133 50.5909 9.24267 50.5909 9.552C50.5909 9.89333 50.7349 10.16 51.0229 10.352C51.3109 10.544 51.6575 10.64 52.0629 10.64ZM58.6275 12C58.5208 12 58.4302 11.9627 58.3555 11.888C58.2808 11.8133 58.2435 11.7227 58.2435 11.616V4.08C58.2435 3.97333 58.2808 3.88267 58.3555 3.808C58.4302 3.72267 58.5208 3.68 58.6275 3.68H59.9235C60.0408 3.68 60.1368 3.71733 60.2115 3.792C60.2862 3.86667 60.3235 3.96267 60.3235 4.08V4.736C60.5795 4.39467 60.8995 4.13333 61.2835 3.952C61.6782 3.77067 62.1262 3.68 62.6275 3.68H63.2835C63.4008 3.68 63.4915 3.71733 63.5555 3.792C63.6302 3.856 63.6675 3.94667 63.6675 4.064V5.216C63.6675 5.32267 63.6302 5.41333 63.5555 5.488C63.4915 5.56267 63.4008 5.6 63.2835 5.6H62.0355C61.5342 5.6 61.1395 5.744 60.8515 6.032C60.5635 6.32 60.4195 6.71467 60.4195 7.216V11.616C60.4195 11.7227 60.3822 11.8133 60.3075 11.888C60.2328 11.9627 60.1368 12 60.0195 12H58.6275ZM68.6754 12C67.7047 12 66.974 11.7493 66.4834 11.248C66.0034 10.736 65.7634 9.98933 65.7634 9.008V5.376H64.4994C64.3927 5.376 64.302 5.33867 64.2274 5.264C64.1527 5.17867 64.1154 5.08267 64.1154 4.976V4.064C64.1154 3.95733 64.1527 3.86667 64.2274 3.792C64.302 3.71733 64.3927 3.68 64.4994 3.68H65.7634V1.024C65.7634 0.906666 65.8007 0.816 65.8754 0.752C65.95 0.677333 66.0407 0.639999 66.1474 0.639999H67.4434C67.5607 0.639999 67.6514 0.677333 67.7154 0.752C67.79 0.816 67.8274 0.906666 67.8274 1.024V3.68H69.8274C69.9447 3.68 70.0354 3.71733 70.0994 3.792C70.174 3.856 70.2114 3.94667 70.2114 4.064V4.976C70.2114 5.09333 70.174 5.18933 70.0994 5.264C70.0247 5.33867 69.934 5.376 69.8274 5.376H67.8274V8.848C67.8274 9.30667 67.9074 9.65333 68.0674 9.888C68.2274 10.1227 68.494 10.24 68.8674 10.24H69.9714C70.078 10.24 70.1687 10.2773 70.2434 10.352C70.318 10.4267 70.3554 10.5173 70.3554 10.624V11.616C70.3554 11.7227 70.318 11.8133 70.2434 11.888C70.1794 11.9627 70.0887 12 69.9714 12H68.6754ZM75.3588 12.16C74.1748 12.16 73.2308 11.8187 72.5268 11.136C71.8334 10.4427 71.4654 9.472 71.4228 8.224L71.4068 7.824L71.4228 7.424C71.4761 6.208 71.8494 5.25333 72.5428 4.56C73.2468 3.86667 74.1854 3.52 75.3588 3.52C76.6174 3.52 77.5881 3.904 78.2708 4.672C78.9641 5.44 79.3108 6.464 79.3108 7.744V8.08C79.3108 8.18667 79.2734 8.27733 79.1988 8.352C79.1241 8.42667 79.0281 8.464 78.9108 8.464H73.5988V8.592C73.6201 9.17867 73.7801 9.67467 74.0788 10.08C74.3881 10.4747 74.8094 10.672 75.3428 10.672C75.9721 10.672 76.4788 10.4267 76.8628 9.936C76.9588 9.81867 77.0334 9.744 77.0868 9.712C77.1508 9.68 77.2414 9.664 77.3588 9.664H78.7348C78.8308 9.664 78.9108 9.696 78.9748 9.76C79.0494 9.81333 79.0868 9.88267 79.0868 9.968C79.0868 10.224 78.9321 10.528 78.6228 10.88C78.3241 11.2213 77.8921 11.52 77.3268 11.776C76.7614 12.032 76.1054 12.16 75.3588 12.16ZM77.1348 7.12V7.072C77.1348 6.44267 76.9748 5.936 76.6548 5.552C76.3454 5.168 75.9134 4.976 75.3588 4.976C74.8041 4.976 74.3721 5.168 74.0628 5.552C73.7534 5.936 73.5988 6.44267 73.5988 7.072V7.12H77.1348ZM84.0971 12.16C83.0198 12.16 82.1931 11.8133 81.6171 11.12C81.0411 10.4267 80.7318 9.504 80.6891 8.352L80.6731 7.824L80.6891 7.312C80.7211 6.192 81.0251 5.28 81.6011 4.576C82.1878 3.872 83.0198 3.52 84.0971 3.52C85.1318 3.52 85.9531 3.872 86.5611 4.576V1.024C86.5611 0.906666 86.5985 0.816 86.6731 0.752C86.7478 0.677333 86.8385 0.639999 86.9451 0.639999H88.3051C88.4225 0.639999 88.5131 0.677333 88.5771 0.752C88.6518 0.816 88.6891 0.906666 88.6891 1.024V11.616C88.6891 11.7227 88.6518 11.8133 88.5771 11.888C88.5131 11.9627 88.4225 12 88.3051 12H87.0411C86.9345 12 86.8438 11.9627 86.7691 11.888C86.6945 11.8133 86.6571 11.7227 86.6571 11.616V11.024C86.0491 11.7813 85.1958 12.16 84.0971 12.16ZM84.6891 10.448C85.3078 10.448 85.7665 10.2507 86.0651 9.856C86.3638 9.46133 86.5291 8.976 86.5611 8.4C86.5718 8.272 86.5771 8.064 86.5771 7.776C86.5771 7.49867 86.5718 7.296 86.5611 7.168C86.5398 6.63467 86.3691 6.18133 86.0491 5.808C85.7398 5.424 85.2865 5.232 84.6891 5.232C83.5371 5.232 82.9238 5.94133 82.8491 7.36L82.8331 7.84L82.8491 8.32C82.9238 9.73867 83.5371 10.448 84.6891 10.448Z" fill="white"/>
</svg>
